<?xml version="1.0" standalone="no"?><!DOCTYPE svg PUBLIC "-//W3C//DTD SVG 1.1//EN" "http://www.w3.org/Graphics/SVG/1.1/DTD/svg11.dtd"><svg t="1771831800269" class="icon" viewBox="0 0 1024 1024" version="1.1" xmlns="http://www.w3.org/2000/svg" p-id="4684" xmlns:xlink="http://www.w3.org/1999/xlink" width="200" height="200"><path d="M865.3 506.3V184.1c0-64.8-52.7-117.5-117.5-117.5H281c-64.8 0-117.5 52.7-117.5 117.5v322.2c-46.4 5.8-82.4 45.5-82.4 93.5v257.8c0 52 42.3 94.2 94.2 94.2h678.2c52 0 94.2-42.3 94.2-94.2V599.8c0-47.9-36-87.6-82.4-93.5zM233.5 184.1c0-26.2 21.3-47.5 47.5-47.5h466.8c26.2 0 47.5 21.3 47.5 47.5v321.5H669.9v87.6c0 3.3-2.7 6-6 6H365c-3.3 0-6-2.7-6-6v-87.6H233.5V184.1z m644.2 673.6c0 13.4-10.9 24.2-24.2 24.2H175.3c-13.4 0-24.2-10.9-24.2-24.2V599.8c0-13.4 10.9-24.2 24.2-24.2H289v17.6c0 41.9 34.1 76 76 76h298.8c41.9 0 76-34.1 76-76v-17.6h113.6c13.4 0 24.2 10.9 24.2 24.2v257.9z" p-id="4685"></path><path d="M513.2 520.3l140.6-140.6-49.5-49.5-57.3 57.4V194.5h-70v190.6l-54.9-54.9-49.5 49.5 91.1 91.1z" p-id="4686"></path></svg>