<?xml version="1.0" standalone="no"?>
<!DOCTYPE svg PUBLIC "-//W3C//DTD SVG 1.1//EN" "http://www.w3.org/Graphics/SVG/1.1/DTD/svg11.dtd">
<svg viewBox="0 0 1024 1024" width="200" height="200"
     xmlns="http://www.w3.org/2000/svg">

  <!-- 主体 -->
  <g fill="currentColor"
     stroke="currentColor"
     stroke-width="12.6"
     stroke-linejoin="round"
     stroke-linecap="round">

    <path d="M723.1 482.1L443.6 320.6c-5.6-3.3-11.5-4.7-17.3-4.7-18.1 0-34.8 14.5-34.8 34.8v322.8c0 20.3 16.6 34.8 34.8 34.8 5.8 0 11.7-1.5 17.3-4.7l279.5-161.4c23.1-13.4 23.1-46.8 0-60.1zM431.5 664.2V359.8L695.2 512 431.5 664.2z"/>

    <path d="M938.1 650.7C952.3 607 960 560.4 960 512c0-247.4-200.6-448-448-448S64 264.6 64 512s200.6 448 448 448c51.5 0 100.9-8.7 146.9-24.7 34.7 29 79.4 46.4 128.1 46.4 110.5 0 200-89.5 200-200 0-50-18.4-95.9-48.9-131zM512 916c-54.6 0-107.5-10.7-157.2-31.7-48.1-20.3-91.3-49.5-128.4-86.6s-66.3-80.3-86.6-128.4C118.7 619.5 108 566.6 108 512s10.7-107.5 31.7-157.2c20.3-48.1 49.5-91.3 86.6-128.4s80.3-66.3 128.4-86.6C404.5 118.7 457.4 108 512 108s107.5 10.7 157.2 31.7c48.1 20.3 91.3 49.5 128.4 86.6s66.3 80.3 86.6 128.4C905.3 404.5 916 457.4 916 512c0 36.3-4.7 71.8-14 106.1-32.5-22.9-72.1-36.3-114.9-36.3-110.5 0-200 89.5-200 200 0 44.1 14.3 84.9 38.5 118C588.9 910.6 550.9 916 512 916z m385.3-23.9c-29.5 29.5-68.6 45.7-110.3 45.7-28.8 0-56.3-7.7-80.3-22.2-10.8-6.5-20.8-14.4-30-23.5-2.6-2.6-5-5.2-7.4-7.9-24.8-28.4-38.3-64.4-38.3-102.4 0-41.7 16.2-80.8 45.7-110.3s68.6-45.7 110.3-45.7c37 0 72.1 12.8 100.1 36.4 3.5 2.9 6.9 6 10.2 9.3 8.4 8.4 15.7 17.6 21.9 27.4 15.5 24.6 23.8 53.1 23.8 82.9 0 41.7-16.2 80.8-45.7 110.3z"/>

  </g>

  <!-- 右下角控制条（变细） -->
  <g fill="currentColor"
     stroke="currentColor"
     stroke-width="8"
     stroke-linejoin="round"
     stroke-linecap="round">

    <path d="M753.1 704.4v-27.6c0-8.3-6.7-15-15-15s-15 6.7-15 15v27.6c-17.5 6.2-30 22.8-30 42.4s12.5 36.3 30 42.4v97.6c0 8.3 6.7 15 15 15s15-6.7 15-15v-97.6c17.5-6.2 30-22.8 30-42.4s-12.5-36.3-30-42.4z m-15 57.4c-8.3 0-15-6.7-15-15s6.7-15 15-15 15 6.7 15 15-6.8 15-15 15zM851 774.4v-97.6c0-8.3-6.7-15-15-15s-15 6.7-15 15v97.6c-17.5 6.2-30 22.8-30 42.4s12.5 36.3 30 42.4v27.6c0 8.3 6.7 15 15 15s15-6.7 15-15v-27.6c17.5-6.2 30-22.8 30-42.4s-12.5-36.3-30-42.4z m-15 57.4c-8.3 0-15-6.7-15-15s6.7-15 15-15 15 6.7 15 15-6.7 15-15 15z"/>

  </g>

</svg>