<svg
  xmlns="http://www.w3.org/2000/svg"
  viewBox="170 170 680 680"
  width="24"
  height="24"
  fill="currentColor"
>
  <path d="M430.933333 610.133333l115.2-145.066666 72.533334 98.133333c34.133333-21.333333 68.266667-34.133333 106.666666-34.133333 8.533333 0 21.333333 0 34.133334 4.266666v-298.666666C755.2 200.533333 725.333333 170.666667 691.2 170.666667H234.666667C200.533333 170.666667 170.666667 200.533333 170.666667 234.666667v456.533333c0 34.133333 29.866667 64 64 64h294.4c-4.266667-8.533333-4.266667-21.333333-4.266667-34.133333 0-21.333333 4.266667-46.933333 12.8-64H234.666667L349.866667 512l81.066666 98.133333zM593.066667 793.6V853.333333h55.466666l153.6-153.6-59.733333-59.733333zM849.066667 631.466667L810.666667 597.333333c-8.533333-8.533333-17.066667-8.533333-21.333334 0l-29.866666 29.866667 59.733333 59.733333 29.866667-29.866666c4.266667-8.533333 4.266667-17.066667 0-25.6z"/>
</svg>